<svg width="139" height="20" viewBox="0 0 139 20" fill="none" xmlns="http://www.w3.org/2000/svg">
<path d="M4.69003 3.64H0.210022V1H12.41V3.64H7.93002V15H4.69003V3.64ZM16.379 5.66C16.752 5.14 17.252 4.7467 17.879 4.48C18.519 4.2133 19.252 4.08001 20.079 4.08001V6.96C19.732 6.9333 19.499 6.92 19.379 6.92C18.486 6.92 17.786 7.1733 17.279 7.68C16.772 8.1733 16.519 8.92 16.519 9.92V15H13.399V4.24001H16.379V5.66ZM25.916 4.08001C27.582 4.08001 28.862 4.48 29.756 5.28C30.649 6.0667 31.096 7.26 31.096 8.86V15H28.176V13.66C27.589 14.66 26.496 15.16 24.896 15.16C24.069 15.16 23.349 15.02 22.736 14.74C22.136 14.46 21.676 14.0733 21.356 13.58C21.036 13.0867 20.876 12.5267 20.876 11.9C20.876 10.9 21.249 10.1133 21.996 9.54C22.756 8.9667 23.922 8.68 25.496 8.68H27.976C27.976 8 27.769 7.48001 27.356 7.12001C26.942 6.74671 26.322 6.56001 25.496 6.56001C24.922 6.56001 24.356 6.6533 23.796 6.84C23.249 7.0133 22.782 7.2533 22.396 7.56L21.276 5.38C21.862 4.9667 22.562 4.6467 23.376 4.42C24.202 4.1933 25.049 4.08001 25.916 4.08001ZM25.676 13.06C26.209 13.06 26.682 12.94 27.096 12.7C27.509 12.4467 27.802 12.08 27.976 11.6V10.5H25.836C24.556 10.5 23.916 10.92 23.916 11.76C23.916 12.16 24.069 12.48 24.376 12.72C24.696 12.9467 25.129 13.06 25.676 13.06ZM44.696 0.160004V15H41.716V13.76C40.943 14.6933 39.823 15.16 38.356 15.16C37.343 15.16 36.423 14.9333 35.596 14.48C34.783 14.0267 34.143 13.38 33.676 12.54C33.21 11.7 32.976 10.7267 32.976 9.62001C32.976 8.51331 33.21 7.54 33.676 6.7C34.143 5.86 34.783 5.2133 35.596 4.76C36.423 4.3067 37.343 4.08001 38.356 4.08001C39.73 4.08001 40.803 4.5133 41.576 5.38V0.160004H44.696ZM38.896 12.6C39.683 12.6 40.336 12.3333 40.856 11.8C41.376 11.2533 41.636 10.5267 41.636 9.62001C41.636 8.71331 41.376 7.9933 40.856 7.46C40.336 6.9133 39.683 6.64 38.896 6.64C38.096 6.64 37.436 6.9133 36.916 7.46C36.396 7.9933 36.136 8.71331 36.136 9.62001C36.136 10.5267 36.396 11.2533 36.916 11.8C37.436 12.3333 38.096 12.6 38.896 12.6ZM57.824 9.66001C57.824 9.70001 57.804 9.98 57.764 10.5H49.624C49.771 11.1667 50.117 11.6933 50.664 12.08C51.211 12.4667 51.891 12.66 52.704 12.66C53.264 12.66 53.757 12.58 54.184 12.42C54.624 12.2467 55.031 11.98 55.404 11.62L57.064 13.42C56.051 14.58 54.571 15.16 52.624 15.16C51.411 15.16 50.337 14.9267 49.404 14.46C48.471 13.98 47.751 13.32 47.244 12.48C46.737 11.64 46.484 10.6867 46.484 9.62001C46.484 8.56671 46.731 7.62 47.224 6.78C47.731 5.9267 48.417 5.2667 49.284 4.8C50.164 4.32 51.144 4.08001 52.224 4.08001C53.277 4.08001 54.231 4.3067 55.084 4.76C55.937 5.2133 56.604 5.8667 57.084 6.72001C57.577 7.56001 57.824 8.54001 57.824 9.66001ZM52.244 6.44C51.537 6.44 50.944 6.64 50.464 7.04C49.984 7.44 49.691 7.9867 49.584 8.68H54.884C54.777 8 54.484 7.46 54.004 7.06C53.524 6.6467 52.937 6.44 52.244 6.44ZM71.325 4.08001C72.325 4.08001 73.232 4.3133 74.045 4.78C74.872 5.2333 75.519 5.88 75.985 6.72001C76.452 7.54671 76.685 8.51331 76.685 9.62001C76.685 10.7267 76.452 11.7 75.985 12.54C75.519 13.3667 74.872 14.0133 74.045 14.48C73.232 14.9333 72.325 15.16 71.325 15.16C69.845 15.16 68.719 14.6933 67.945 13.76V15H64.965V0.160004H68.085V5.38C68.872 4.5133 69.952 4.08001 71.325 4.08001ZM70.785 12.6C71.585 12.6 72.239 12.3333 72.745 11.8C73.265 11.2533 73.525 10.5267 73.525 9.62001C73.525 8.71331 73.265 7.9933 72.745 7.46C72.239 6.9133 71.585 6.64 70.785 6.64C69.985 6.64 69.325 6.9133 68.805 7.46C68.299 7.9933 68.045 8.71331 68.045 9.62001C68.045 10.5267 68.299 11.2533 68.805 11.8C69.325 12.3333 69.985 12.6 70.785 12.6ZM88.861 4.24001L84.001 15.66C83.508 16.9 82.894 17.7733 82.161 18.28C81.441 18.7867 80.568 19.04 79.541 19.04C78.981 19.04 78.428 18.9533 77.881 18.78C77.334 18.6067 76.888 18.3667 76.541 18.06L77.681 15.84C77.921 16.0533 78.194 16.22 78.501 16.34C78.821 16.46 79.134 16.52 79.441 16.52C79.868 16.52 80.214 16.4133 80.481 16.2C80.748 16 80.988 15.66 81.201 15.18L81.241 15.08L76.581 4.24001H79.801L82.821 11.54L85.861 4.24001H88.861Z" fill="black"/>
<path d="M101.558 4.08001C102.558 4.08001 103.465 4.3133 104.278 4.78C105.105 5.2333 105.752 5.88 106.218 6.72001C106.685 7.54671 106.918 8.51331 106.918 9.62001C106.918 10.7267 106.685 11.7 106.218 12.54C105.752 13.3667 105.105 14.0133 104.278 14.48C103.465 14.9333 102.558 15.16 101.558 15.16C100.078 15.16 98.952 14.6933 98.178 13.76V15H95.198V0.160004H98.318V5.38C99.105 4.5133 100.185 4.08001 101.558 4.08001ZM101.018 12.6C101.818 12.6 102.472 12.3333 102.978 11.8C103.498 11.2533 103.758 10.5267 103.758 9.62001C103.758 8.71331 103.498 7.9933 102.978 7.46C102.472 6.9133 101.818 6.64 101.018 6.64C100.218 6.64 99.558 6.9133 99.038 7.46C98.532 7.9933 98.278 8.71331 98.278 9.62001C98.278 10.5267 98.532 11.2533 99.038 11.8C99.558 12.3333 100.218 12.6 101.018 12.6ZM112.871 4.08001C114.538 4.08001 115.818 4.48 116.711 5.28C117.604 6.0667 118.051 7.26 118.051 8.86V15H115.131V13.66C114.544 14.66 113.451 15.16 111.851 15.16C111.024 15.16 110.304 15.02 109.691 14.74C109.091 14.46 108.631 14.0733 108.311 13.58C107.991 13.0867 107.831 12.5267 107.831 11.9C107.831 10.9 108.204 10.1133 108.951 9.54C109.711 8.9667 110.878 8.68 112.451 8.68H114.931C114.931 8 114.724 7.48001 114.311 7.12001C113.898 6.74671 113.278 6.56001 112.451 6.56001C111.878 6.56001 111.311 6.6533 110.751 6.84C110.204 7.0133 109.738 7.2533 109.351 7.56L108.231 5.38C108.818 4.9667 109.518 4.6467 110.331 4.42C111.158 4.1933 112.004 4.08001 112.871 4.08001ZM112.631 13.06C113.164 13.06 113.638 12.94 114.051 12.7C114.464 12.4467 114.758 12.08 114.931 11.6V10.5H112.791C111.511 10.5 110.871 10.92 110.871 11.76C110.871 12.16 111.024 12.48 111.331 12.72C111.651 12.9467 112.084 13.06 112.631 13.06ZM127.515 14.48C127.208 14.7067 126.828 14.88 126.375 15C125.935 15.1067 125.468 15.16 124.975 15.16C123.695 15.16 122.701 14.8333 121.995 14.18C121.301 13.5267 120.955 12.5667 120.955 11.3V6.88H119.295V4.48H120.955V1.86H124.075V4.48H126.755V6.88H124.075V11.26C124.075 11.7133 124.188 12.0667 124.415 12.32C124.655 12.56 124.988 12.68 125.415 12.68C125.908 12.68 126.328 12.5467 126.675 12.28L127.515 14.48ZM133.306 4.08001C134.973 4.08001 136.253 4.48 137.146 5.28C138.04 6.0667 138.486 7.26 138.486 8.86V15H135.566V13.66C134.98 14.66 133.886 15.16 132.286 15.16C131.46 15.16 130.74 15.02 130.126 14.74C129.526 14.46 129.066 14.0733 128.746 13.58C128.426 13.0867 128.266 12.5267 128.266 11.9C128.266 10.9 128.64 10.1133 129.386 9.54C130.146 8.9667 131.313 8.68 132.886 8.68H135.366C135.366 8 135.16 7.48001 134.746 7.12001C134.333 6.74671 133.713 6.56001 132.886 6.56001C132.313 6.56001 131.746 6.6533 131.186 6.84C130.64 7.0133 130.173 7.2533 129.786 7.56L128.666 5.38C129.253 4.9667 129.953 4.6467 130.766 4.42C131.593 4.1933 132.44 4.08001 133.306 4.08001ZM133.066 13.06C133.6 13.06 134.073 12.94 134.486 12.7C134.9 12.4467 135.193 12.08 135.366 11.6V10.5H133.226C131.946 10.5 131.306 10.92 131.306 11.76C131.306 12.16 131.46 12.48 131.766 12.72C132.086 12.9467 132.52 13.06 133.066 13.06Z" fill="#4E55D7"/>
</svg>
